<?xml version="1.0" standalone="no"?><!DOCTYPE svg PUBLIC "-//W3C//DTD SVG 1.1//EN" "http://www.w3.org/Graphics/SVG/1.1/DTD/svg11.dtd"><svg class="icon" width="64px" height="64.00px" viewBox="0 0 1024 1024" version="1.1" xmlns="http://www.w3.org/2000/svg"><path d="M47.627907 7.937984 47.627907 7.937984 47.627907 7.937984Z" fill="#aeaeae" /><path d="M845.966884 570.40769l0 272.161736q0 14.748775-10.779783 25.512682t-25.512682 10.779783l-217.723039 0 0-217.723039-145.153984 0 0 217.723039-217.723039 0q-14.748775 0-25.512682-10.779783t-10.779783-25.512682l0-272.161736q0-0.571535 0.285767-1.698729t0.285767-1.698729l326.028899-268.764279 326.028899 268.764279q0.571535 1.127194 0.571535 3.397457zM972.403101 531.273426l-35.149395 41.960186q-4.540527 5.096186-11.906977 6.239256l-1.698729 0q-7.36645 0-11.906977-3.968992l-392.358698-327.156093-392.358698 327.156093q-6.810791 4.540527-13.605705 3.968992-7.36645-1.127194-11.906977-6.239256l-35.149395-41.960186q-4.540527-5.667721-3.968992-13.319938t6.239256-12.192744l407.679008-339.634605q18.146233-14.748775 43.08738-14.748775t43.08738 14.748775l138.343194 115.67231 0-110.560248q0-7.937984 5.096186-13.034171t13.034171-5.096186l108.861519 0q7.937984 0 13.034171 5.096186t5.096186 13.034171l0 231.328744 124.165953 103.193798q5.667721 4.540527 6.239256 12.192744t-3.968992 13.319938z" fill="#aeaeae" /></svg>