<?xml version="1.0" standalone="no"?><!DOCTYPE svg PUBLIC "-//W3C//DTD SVG 1.1//EN" "http://www.w3.org/Graphics/SVG/1.1/DTD/svg11.dtd"><svg class="icon" width="64px" height="63.88px" viewBox="0 0 1026 1024" version="1.1" xmlns="http://www.w3.org/2000/svg"><path d="M513.603125 62c-248.034375 0-450 201.825-450 450s201.9375 449.971875 450 449.971875c248.146875 0 450-201.796875 450-449.971875S761.778125 62 513.603125 62L513.603125 62 513.603125 62zM513.603125 875.43125c-200.446875 0-363.515625-163.06875-363.515625-363.459375 0-200.53125 163.040625-363.54375 363.515625-363.54375 200.475 0 363.54375 163.0125 363.54375 363.54375C877.175 712.390625 714.078125 875.43125 513.603125 875.43125L513.603125 875.43125 513.603125 875.43125z" fill="#aeaeae" /><path d="M554.525 451.75625l-81.84375 0c-11.30625 0-20.446875 9.16875-20.446875 20.446875l0 43.36875 0 14.428125 0 190.940625c0 11.278125 9.140625 20.475 20.446875 20.475l81.84375 0c11.278125 0 20.446875-9.16875 20.446875-20.475L574.971875 530l0-14.428125 0-43.36875C574.971875 460.925 565.83125 451.75625 554.525 451.75625L554.525 451.75625z" fill="#aeaeae" /><path d="M448.803125 347.35625c0 35.775 28.996875 64.8 64.8 64.8s64.8-28.996875 64.8-64.8-28.996875-64.8-64.8-64.8S448.803125 311.58125 448.803125 347.35625L448.803125 347.35625 448.803125 347.35625z" fill="#aeaeae" /></svg>