<?xml version="1.0" standalone="no"?><!DOCTYPE svg PUBLIC "-//W3C//DTD SVG 1.1//EN" "http://www.w3.org/Graphics/SVG/1.1/DTD/svg11.dtd"><svg class="icon" width="64px" height="64.00px" viewBox="0 0 1024 1024" version="1.1" xmlns="http://www.w3.org/2000/svg"><path d="M941.427376 910.59516c-16.080234 16.010649-69.712735 18.382673-85.792968 2.378164L631.709429 684.444491c61.748343-50.087768 70.796416-148.074454 70.796416-199.626573 0-148.759045-109.305475-260.410961-257.868045-260.410961-148.56871 0-256.612449 109.908202-256.612449 258.673387 0 148.752906 102.096283 261.730003 250.664993 261.730003 30.759561 0 44.760436 0.037862 72.293513-9.466606l0.38681 1.483794c7.000438-3.544733 77.435627-12.098549 77.435627 60.962443 0 20.455891-15.623839 41.425482-34.932604 48.178279-32.66905 11.420097-75.431993 16.936741-108.60144 16.936741-211.592093 0-381.180536-169.367409-381.180536-380.807029 0-211.370035 169.589466-382.79122 381.180536-382.79122 211.667817 0 381.180536 171.421184 381.180536 382.79122 0 65.812915-12.979616 127.682008-40.201607 179.176822l157.154249 159.189605C959.423239 836.475046 957.439048 894.660236 941.427376 910.59516L941.427376 910.59516zM941.427376 910.59516" fill="#aeaeae" /></svg>